<svg xmlns="http://www.w3.org/2000/svg" viewBox="0 0 512 512"><radialGradient id="SVGIalUG8Uh" cx="-636.407" cy="-241.425" r="14.223" gradientTransform="matrix(-18.3292 -29.852 26.9769 -16.5711 -4739.679 -22434.014)" gradientUnits="userSpaceOnUse"><stop offset="0" stop-color="#1a7f7c"/><stop offset=".45" stop-color="#14717c"/><stop offset=".8" stop-color="#08567b"/></radialGradient><path fill="url(#SVGIalUG8Uh)" d="M78.3 312.9c0-62.8 50.9-113.8 113.8-113.8h312.8v270.2c0 23.6-19.1 42.7-42.7 42.7H164.1c-47.4 0-85.8-38.4-85.8-85.8z"/><radialGradient id="SVGIMbLAoGM" cx="-659.117" cy="-242.353" r="14.223" gradientTransform="rotate(223.32 -4658.958 -3611.382)scale(16.46 12.72)" gradientUnits="userSpaceOnUse"><stop offset="0" stop-color="#06517b"/><stop offset=".99" stop-color="#06517b" stop-opacity="0"/></radialGradient><path fill="url(#SVGIMbLAoGM)" fill-opacity=".8" d="M78.3 312.9c0-62.8 50.9-113.8 113.8-113.8h312.8v270.2c0 23.6-19.1 42.7-42.7 42.7H164.1c-47.4 0-85.8-38.4-85.8-85.8z"/><linearGradient id="SVGFouEmjdL" x1="107.943" x2="511.707" y1="300.296" y2="67.172" gradientTransform="translate(0 -58)" gradientUnits="userSpaceOnUse"><stop offset=".23" stop-color="#15b4d5"/><stop offset="1" stop-color="#43e5ca"/></linearGradient><path fill="url(#SVGFouEmjdL)" d="M78.3 85.8C78.3 38.4 116.7 0 164.1 0h294.2c25.7 0 46.5 20.8 46.5 46.5v162.9c0 25.7-20.8 46.5-46.5 46.5H164.1c-47.4 0-85.8 38.7-85.8 86.1z"/><linearGradient id="SVGB7bnNeuZ" x1="195.774" x2="78.259" y1="229.049" y2="229.049" gradientTransform="translate(0 -58)" gradientUnits="userSpaceOnUse"><stop offset=".18" stop-color="#29cbdc" stop-opacity="0"/><stop offset="1" stop-color="#36dff1"/></linearGradient><path fill="url(#SVGB7bnNeuZ)" d="M78.3 85.8C78.3 38.4 116.7 0 164.1 0h294.2c25.7 0 46.5 20.8 46.5 46.5v162.9c0 25.7-20.8 46.5-46.5 46.5H164.1c-47.4 0-85.8 38.7-85.8 86.1z"/><linearGradient id="SVGuzgNQeOY" x1="320.274" x2="420.841" y1="107.416" y2="252.681" gradientTransform="translate(0 -58)" gradientUnits="userSpaceOnUse"><stop offset="0" stop-color="#119fc5"/><stop offset="1" stop-color="#22918b"/></linearGradient><path fill="url(#SVGuzgNQeOY)" d="M369.8 199.1c43.2 0 78.2-35 78.2-78.2s-35-78.2-78.2-78.2s-78.2 35-78.2 78.2s35 78.2 78.2 78.2"/><linearGradient id="SVGAcKuHeFr" x1="342.764" x2="397.619" y1="139.906" y2="219.133" gradientTransform="translate(0 -58)" gradientUnits="userSpaceOnUse"><stop offset="0" stop-color="#06517b"/><stop offset="1" stop-color="#1a7f7c"/></linearGradient><path fill="url(#SVGAcKuHeFr)" d="M369.8 163.6c23.6 0 42.7-19.1 42.7-42.7s-19.1-42.7-42.7-42.7s-42.7 19.1-42.7 42.7s19.1 42.7 42.7 42.7"/><linearGradient id="SVGDauhUc9n" x1="329.267" x2="411.546" y1="376.409" y2="495.255" gradientTransform="translate(0 -58)" gradientUnits="userSpaceOnUse"><stop offset="0" stop-color="#119fc5"/><stop offset="1" stop-color="#20ac9d"/></linearGradient><path fill="url(#SVGDauhUc9n)" d="M422.1 312.9H317.4c-6.4 0-11.6 5.2-11.6 11.6v104.7c0 6.4 5.2 11.6 11.6 11.6h104.7c6.4 0 11.6-5.2 11.6-11.6V324.5c0-6.4-5.2-11.6-11.6-11.6"/><radialGradient id="SVGZoLBHdow" cx="-566.015" cy="-256.303" r="14.223" gradientTransform="rotate(45 -13697.188 12689.592)scale(22.62)skewY(.01)" gradientUnits="userSpaceOnUse"><stop offset=".06" stop-color="#009bbc"/><stop offset=".59" stop-color="#01657d"/><stop offset=".94" stop-color="#014354"/></radialGradient><path fill="url(#SVGZoLBHdow)" d="M53.4 241.8h135.1c25.5 0 46.2 20.7 46.2 46.2v135.1c0 25.5-20.7 46.2-46.2 46.2H53.4c-25.5 0-46.2-20.7-46.2-46.2V288c0-25.5 20.7-46.2 46.2-46.2"/><radialGradient id="SVG4jD2meyN" cx="-542.775" cy="-309.721" r="14.223" gradientTransform="matrix(0 11.2 -12.75 0 -3825.51 6457.4)" gradientUnits="userSpaceOnUse"><stop offset=".57" stop-color="#1e8581" stop-opacity="0"/><stop offset=".97" stop-color="#1ecbe6"/></radialGradient><path fill="url(#SVG4jD2meyN)" fill-opacity=".6" d="M53.4 241.8h135.1c25.5 0 46.2 20.7 46.2 46.2v135.1c0 25.5-20.7 46.2-46.2 46.2H53.4c-25.5 0-46.2-20.7-46.2-46.2V288c0-25.5 20.7-46.2 46.2-46.2"/><path fill="#fff" d="M158.5 314.8h-45.9v31.3h42.2v24.1h-42.2v50.3H83.3v-130h75.2z"/></svg>
